<svg width="1920" height="1123" viewBox="0 0 1920 1123" fill="none" xmlns="http://www.w3.org/2000/svg">
<rect width="1920" height="1123" fill="#070E13"/>
<circle cx="1605" cy="236" r="4" fill="#26B2DE"/>
<circle cx="1605" cy="236" r="4" fill="#26B2DE"/>
<circle cx="1702" cy="779" r="4" fill="#26B2DE"/>
<circle cx="1428" cy="457" r="4" fill="#26B2DE"/>
<circle cx="1056" cy="983" r="4" fill="#26B2DE"/>
<circle cx="307" cy="915" r="4" fill="#26B2DE"/>
<circle cx="690" cy="649" r="4" fill="#26B2DE"/>
<circle cx="218" cy="437" r="4" fill="#26B2DE"/>
<circle cx="372" cy="141" r="4" fill="#26B2DE"/>
<circle cx="1662.45" cy="601.201" r="2.35765" transform="rotate(40.3403 1662.45 601.201)" fill="#26B2DE"/>
<circle cx="1498.86" cy="882.157" r="2.35765" transform="rotate(40.3403 1498.86 882.157)" fill="#26B2DE"/>
<circle cx="1498.62" cy="632.954" r="2.35765" transform="rotate(40.3403 1498.62 632.954)" fill="#26B2DE"/>
<circle cx="1130.8" cy="727.33" r="2.35765" transform="rotate(40.3403 1130.8 727.33)" fill="#26B2DE"/>
<circle cx="820.252" cy="411.006" r="2.35765" transform="rotate(40.3403 820.252 411.006)" fill="#26B2DE"/>
<circle cx="1093.81" cy="437.634" r="2.35765" transform="rotate(40.3403 1093.81 437.634)" fill="#26B2DE"/>
<circle cx="962.645" cy="162.303" r="2.35765" transform="rotate(40.3403 962.645 162.303)" fill="#26B2DE"/>
<circle cx="1159.14" cy="100.29" r="2.35765" transform="rotate(40.3403 1159.14 100.29)" fill="#26B2DE"/>
<circle cx="380.123" cy="740.344" r="2.35765" transform="rotate(180 380.123 740.344)" fill="#26B2DE"/>
<circle cx="821.592" cy="780.424" r="2.35765" transform="rotate(180 821.592 780.424)" fill="#26B2DE"/>
<circle cx="737.467" cy="986.835" r="2.35765" transform="rotate(180 737.467 986.835)" fill="#26B2DE"/>
<circle cx="527.102" cy="228.06" r="2.35765" transform="rotate(180 527.102 228.06)" fill="#26B2DE"/>
<circle cx="53.1925" cy="330.762" r="2.35765" transform="rotate(180 53.1925 330.762)" fill="#26B2DE"/>
</svg>
